<?xml version="1.0" encoding="UTF-8"?>
<!-- Generator: Adobe Illustrator 25.2.1, SVG Export Plug-In . SVG Version: 6.00 Build 0)  -->
<svg xmlns="http://www.w3.org/2000/svg" xmlns:xlink="http://www.w3.org/1999/xlink" version="1.1" id="pet" x="0px" y="0px" viewBox="0 0 561.403 561.403" style="enable-background:new 0 0 561.403 561.403;" xml:space="preserve" width="512" height="512">
<g>
	<path style="fill:#FFFFFF;" d="M127.842,487.07c45.438,52.635,124.539,51.572,186.629,48.38   c58.75-2.468,104.102-20.501,138.604-69.034c18.933-25.68,31.987-52.725,43.059-83.469c8.111-22.552,10.404-45.289,16.941-67.214   c4.825-13.051,20.034-25.269,27.796-39.013c51.026-76.721,2.044-179.232-92.886-151.593   c-3.228-90.034-111.622-139.161-168.874-62.541C221.1-12.798,112.582,38.284,111.496,128.32   c-114.353-26.404-143.238,102.4-75.06,172.435c17.704,17.133,17.629,37.003,23.578,58.791   C72.326,408.082,97.05,454.559,127.842,487.07z"/>
	<g>
		<g>
			<path style="fill:#FFC043;" d="M424.952,162.746c-0.469-23.938-1.081-48.562-10.598-70.593     c-12.998-30.088-45.551-48.294-78.402-40.495c-32.027,7.604-51.137,41.679-56.224,73.636     c-5.692-31.854-25.444-65.561-57.61-72.557c-32.993-7.175-65.194,11.644-77.62,41.974c-9.098,22.207-9.242,46.838-9.258,70.781     c-51.091-31.737-112.292-16.306-110.552,49.547c0.518,19.585,7.428,36.829,17.855,53.21     c9.558,15.017,25.537,26.778,31.198,44.135c7.045,21.597,9.738,44.275,17.851,65.837c15.81,42.018,41.843,89.064,81.393,113.917     c28.308,17.789,73.905,19.611,108.394,19.453l0,0.017c0.655-0.007,1.346-0.019,2.011-0.028c0.665-0.004,1.356-0.005,2.012-0.01     l0-0.017c34.486-0.496,80.04-3.181,108.006-21.504c39.071-25.599,64.208-73.13,79.218-115.44     c7.703-21.711,9.965-44.437,16.6-66.164c5.332-17.46,21.085-29.523,30.357-44.718c10.114-16.576,16.696-33.949,16.842-53.539     C536.915,144.314,475.432,130.046,424.952,162.746z"/>
		</g>
		<g>
			<g>
				<path style="fill:#FFB031;" d="M426.441,414.805c-55.174,30.141-120.439,57.117-179.197,34.754      c-41.801-15.909-71.216-54.151-90.92-94.304c-19.704-40.152-31.924-83.687-52.275-123.515      c-13.843-27.092-32.558-53.059-56.487-71.271c-14.425,10.484-23.561,28.584-22.875,54.569      c0.518,19.585,7.428,36.829,17.855,53.21c9.558,15.017,25.537,26.778,31.198,44.135c7.045,21.597,9.738,44.275,17.851,65.837      c15.81,42.017,41.843,89.063,81.392,113.917c28.307,17.789,73.905,19.611,108.394,19.453l0,0.017      c0.655-0.007,1.346-0.019,2.011-0.028c0.665-0.004,1.356-0.005,2.012-0.01l0-0.017c34.486-0.496,80.04-3.181,108.006-21.504      c33.277-21.803,56.416-59.511,71.83-96.357C452.135,400.614,439.204,407.832,426.441,414.805z"/>
			</g>
		</g>
		<g>
			<g>
				<path style="fill:#E058A3;" d="M243.908,120.409c-2.956-14.38-10.509-30.321-23.094-38.667      c-18.574-12.317-43.366,2.777-50.96,20.817c-7.058,16.766-7.281,37.866-1.694,55.09c4.864,14.996,10.515,22.87,25.716,27.08      c18.596,5.15,36.621-3.26,45.608-20.466C246.422,150.981,246.925,135.087,243.908,120.409z"/>
			</g>
			<g>
				<path style="fill:#E058A3;" d="M107.625,188.36c-11.076-7.209-26.061-12.464-39.369-9.69      c-19.64,4.095-25.67,29.517-18.928,45.797c6.265,15.129,19.631,28.627,34.192,35.952c12.679,6.378,21.296,7.744,33.612,0.678      c15.066-8.644,21.091-25.506,15.765-42.149C128.786,206.101,118.93,195.719,107.625,188.36z"/>
			</g>
			<g>
				<path style="fill:#E058A3;" d="M309.725,119.785c2.682-14.433,9.932-30.515,22.357-39.098      c18.338-12.666,43.41,1.955,51.345,19.848c7.374,16.629,7.997,37.722,2.738,55.047c-4.579,15.086-10.081,23.066-25.198,27.563      c-18.495,5.502-36.676-2.565-45.988-19.598C307.792,150.399,306.987,134.518,309.725,119.785z"/>
			</g>
			<g>
				<path style="fill:#E058A3;" d="M447.272,185.141c10.937-7.418,25.82-12.956,39.178-10.434      c19.714,3.722,26.224,29.026,19.793,45.43c-5.978,15.245-19.085,28.994-33.505,36.593c-12.555,6.617-21.145,8.146-33.593,1.315      c-15.227-8.357-21.571-25.101-16.561-41.842C426.451,203.28,436.108,192.713,447.272,185.141z"/>
			</g>
			<g>
				<path style="fill:#E058A3;" d="M383.16,248.009c-52.222-49.561-153.547-48.257-204.467,1.938      c-30.304,29.873-45.194,73.264-45.276,115.816c-0.042,21.619,3.683,43.78,14.783,62.332      c11.376,19.013,32.716,33.259,55.314,35.658c19.058,2.023,33.3-7.588,49.115-16.404c16.556-9.229,40.021-10.268,57.137-2.604      c18.039,8.077,31.308,20.176,52.631,17.503c22.547-2.827,43.614-17.475,54.628-36.7c10.746-18.759,14.05-40.987,13.599-62.601      C429.735,320.403,414.025,277.302,383.16,248.009z"/>
			</g>
		</g>
		<g>
			<g>
				<g>
					<g>
						<path style="fill:#FFF2E3;" d="M401.24,364.334c2.417-0.086,4.587-7.088,4.67-18.592c0.105-11.46-2.259-27.378-8.432-43.841        c-6.207-16.449-14.92-29.979-22.551-38.529c-7.644-8.598-13.891-12.433-15.765-10.905c-3.972,3.36,10.304,25.832,21.367,55.81        C391.965,338.114,396.038,364.424,401.24,364.334z"/>
					</g>
				</g>
				<g>
					<g>
						<path style="fill:#FFF2E3;" d="M406.985,400.049c4.964-0.602,8.221-7.428,7.274-15.249c-0.948-7.82-5.74-13.672-10.705-13.07        c-4.964,0.601-8.221,7.429-7.273,15.249C397.228,394.798,402.02,400.65,406.985,400.049z"/>
					</g>
				</g>
			</g>
			<g>
				<g>
					<path style="fill:#FFF2E3;" d="M123.448,224.864c2.196-1.105,3-4.742,1.652-9.753c-1.314-4.975-4.967-11.193-10.772-16.308       c-5.813-5.107-12.443-7.939-17.545-8.61c-5.142-0.7-8.647,0.561-9.464,2.879c-0.848,2.388,0.913,5.352,3.768,8.59       c2.89,3.245,6.855,6.864,11.278,10.736c4.403,3.895,8.497,7.367,12.084,9.821C118.023,224.639,121.187,226.009,123.448,224.864       z"/>
				</g>
			</g>
			<g>
				<g>
					<path style="fill:#FFF2E3;" d="M227.933,152.298c2.455,0.233,5.081-2.735,6.765-8.093c1.689-5.323,2.267-13.039,0.702-21.266       c-1.577-8.225-4.958-15.184-8.49-19.51c-3.539-4.361-7.074-6.152-9.271-5.031c-4.45,2.46-2.524,14.348-0.027,27.938       C220.299,139.89,222.89,151.652,227.933,152.298z"/>
				</g>
			</g>
			<g>
				<g>
					<path style="fill:#FFF2E3;" d="M367.625,154.483c2.368,0.662,5.522-1.892,8.081-7.112c2.559-5.175,4.311-13.049,3.775-21.746       c-0.55-8.695-3.269-16.29-6.453-21.106c-3.188-4.86-6.636-7.002-8.903-6.05c-2.34,0.976-3.172,4.691-3.363,9.726       c-0.173,5.062,0.19,11.498,0.645,18.56c0.427,7.064,0.868,13.495,1.671,18.496       C363.893,150.223,365.181,153.806,367.625,154.483z"/>
				</g>
			</g>
			<g>
				<g>
					<path style="fill:#FFF2E3;" d="M468.577,238.641c0.888,2.259,4.991,3.307,10.825,1.291c5.743-1.931,12.981-7.363,17.287-16.019       c4.312-8.653,4.285-17.703,2.364-23.448c-1.907-5.871-5.216-8.512-7.554-7.86c-2.457,0.658-3.762,4.067-5.242,8.349       c-1.444,4.318-3.164,9.622-5.78,14.888c-2.625,5.261-5.821,9.83-8.397,13.585C469.556,233.187,467.622,236.283,468.577,238.641       z"/>
				</g>
			</g>
		</g>
		<g>
			<g>
				<path style="fill:#DD47A0;" d="M273.453,295.436c13.43-15.929,20.507-38.193,6.737-55.913      c-11.821-15.212-29.629-8.207-45.048-1.245c-33.242,15.008-57.811,46.828-68.674,80.593      c-10.995,34.176-7.833,72.673,8.591,104.597c4.047,7.867,9.083,15.572,16.491,20.409c7.407,4.837,17.654,6.183,25.028,1.295      c9.433-6.253,10.766-19.396,10.54-30.711c-0.517-25.977-3.899-53.677,8.591-76.46      C244.853,321.319,261.19,309.981,273.453,295.436z"/>
			</g>
		</g>
		<g>
			<g>
				<path style="fill:#DD47A0;" d="M351.178,153.86c-3.488-8.686-6.261-17.658-8.285-26.797c-1.103-4.974-1.046-24.387-5.756-26.728      c-10.444-5.191-15.796,28.354-16.119,34.529c-0.75,14.293,5.663,29.974,18.777,35.709c3.559,1.556,8.044,2.193,11.069-0.245      c2.301-1.855,3.128-5.071,2.864-8.015C353.465,159.37,352.279,156.602,351.178,153.86z"/>
			</g>
		</g>
		<g>
			<g>
				<path style="fill:#DD47A0;" d="M472.206,202.813c9.302-10.182,3.841-20.539-9.454-15.663      c-10.015,3.673-18.713,11.605-24.308,20.157c-5.983,9.145-8.054,20.76-5.599,31.408c0.974,4.225,2.749,8.461,6.082,11.234      c3.333,2.772,8.502,3.656,12.036,1.145c4.055-2.881,4.484-8.588,5.12-13.521C457.743,224.706,463.455,212.392,472.206,202.813z"/>
			</g>
		</g>
		<g>
			<g>
				<path style="fill:#DD47A0;" d="M202.145,152.812c-0.362-9.214-2.267-18.268-2.94-27.451      c-0.475-6.486,7.154-43.318-12.282-30.185c-12.843,8.678-14.582,35.16-12.419,48.556c1.294,8.015,4.913,16.278,12,20.239      c4.082,2.282,9.778,2.648,13.001-0.739C202.045,160.563,202.289,156.495,202.145,152.812z"/>
			</g>
		</g>
		<g>
			<g>
				<path style="fill:#DD47A0;" d="M68.671,236.223c6.677,10.362,14.686,18.588,29.057,19.226      c5.257,0.233,11.456-1.577,13.147-6.561c1.922-5.664-3.123-11.18-7.981-14.668c-9.753-7.004-21.219-12.717-27.134-23.168      c-2.331-4.119-6.152-14.016-12.368-13.082c-14.901,2.239-3.031,24.106,0.857,30.893      C65.694,231.385,67.148,233.86,68.671,236.223z"/>
			</g>
		</g>
	</g>
</g>















</svg>
